# xmcd CD database file
#
# Track frame offsets:
#	150
#	16190
#	42047
#	62182
#
# Disc length: 1039 seconds
#
# Revision: 0
# Processed by: cddbd v1.5.1PL0 Copyright (c) Steve Scherf et al.
# Submitted via: CDex 1.51
#
DISCID=28040d04
DTITLE=新堂 敦士 - 君が好きだよ
DYEAR=1900
DGENRE=J-Pop
TTITLE0=君が好きだよ 〜守って守ってあげるから〜
TTITLE1=重ね合う唇
TTITLE2=何も怖くない
TTITLE3=君が好きだよ 〜守って守ってあげるから〜(カラオケ)
EXTD=
EXTT0=
EXTT1=
EXTT2=
EXTT3=
PLAYORDER=
